# xmcd
#
# Track frame offsets: 
#        150
#        11102
#        19632
#        36369
#        45232
#        58734
#        68589
#        80006
#        90845
#        104314
#        117971
#        127997
#        138664
#        155827
#        167712
#        180237
#
# Disc length: 2574 seconds
#
# Revision: 0
# Processed by: cddbd v1.5.2PL0 Copyright (c) Steve Scherf et al.
# Submitted via: ExactAudioCopy v0.99pb4
#
DISCID=c80a0c10
DTITLE=The Blue Flames - Juke
DYEAR=2004
DGENRE=Rockin Blues
TTITLE0=Shout Sister Shout
TTITLE1=Mean Little Mama
TTITLE2=The Boogie Disease
TTITLE3=Ice Cold Baby
TTITLE4=Mule Train Blues
TTITLE5=Born To Love One Woman
TTITLE6=Brand New Cadillac
TTITLE7=Suzie Q
TTITLE8=Come Back Baby Come
TTITLE9=Money's All Gone
TTITLE10=Move Around
TTITLE11=Blue Legs Black Hair
TTITLE12=Big Legs Tight Skirt
TTITLE13=Rockin Rollin Stone
TTITLE14=Down The Mountain
TTITLE15=Sloppy Drunk
EXTD=
EXTT0=
EXTT1=
EXTT2=
EXTT3=
EXTT4=
EXTT5=
EXTT6=
EXTT7=
EXTT8=
EXTT9=
EXTT10=
EXTT11=
EXTT12=
EXTT13=
EXTT14=
EXTT15=
PLAYORDER=
